<svg xmlns="http://www.w3.org/2000/svg"><symbol id="e-1f4d4" viewBox="0 0 36 36"><path fill="#C1694F" d="M35 26c0 2.209-1.791 4-4 4H5c-2.209 0-4-1.791-4-4V6.313C1 4.104 6.791 0 9 0h20.625C32.719 0 35 2.312 35 5.375V26z"/><path fill="#CCD6DD" d="M33 30c0 2.209-1.791 4-4 4H7c-2.209 0-4-1.791-4-4V6c0-4.119-.021-4 5-4h21c2.209 0 4 1.791 4 4v24z"/><path fill="#E1E8ED" d="M31 31c0 1.657-1.343 3-3 3H4c-1.657 0-3-1.343-3-3V7c0-1.657 1.343-3 3-3h24c1.657 0 3 1.343 3 3v24z"/><path fill="#C1694F" d="M31 32c0 2.209-1.791 4-4 4H6c-2.209 0-4-1.791-4-4V10c0-2.209 1.791-4 4-4h21c2.209 0 4 1.791 4 4v22z"/><path fill="#D99E82" d="M29 32c0 2.209-1.791 4-4 4H6c-2.209 0-4-1.791-4-4V12c0-2.209 1.791-4 4-4h19.335C27.544 8 29 9.456 29 11.665V32z"/><path fill="#C1694F" d="M6 6C4.312 6 4.269 4.078 5 3.25 5.832 2.309 7.125 2 9.438 2H11V0H8.281C4.312 0 1 2.5 1 5.375V32c0 2.209 1.791 4 4 4h2V6H6z"/><path fill="#E1E8ED" d="M25 18c0 1.104-.896 2-2 2H13c-1.104 0-2-.896-2-2v-2c0-1.104.896-2 2-2h10c1.104 0 2 .896 2 2v2z"/></symbol><symbol id="e-1f90d" viewBox="0 0 36 36"><path fill="#E6E7E8" d="M35.885 11.833c0-5.45-4.418-9.868-9.867-9.868-3.308 0-6.227 1.633-8.018 4.129-1.791-2.496-4.71-4.129-8.017-4.129-5.45 0-9.868 4.417-9.868 9.868 0 .772.098 1.52.266 2.241C1.751 22.587 11.216 31.568 18 34.034c6.783-2.466 16.249-11.447 17.617-19.959.17-.721.268-1.469.268-2.242z"/></symbol><symbol id="e-1f4ff" viewBox="0 0 36 36"><path fill="#292F33" d="M26.797 28.781c.484 1.109-.268 2.391.739 4.323 1.088 2.087 3.653 2.801 5.292 2.817 1.078.011 1.189-.447.759-.667-.681-.349-.598-.871-.598-.871s.464.429 1.308.663c.621.173 1.307.216 1.518-.379.182-.51-1.647-.142-2.491-1.954 1.092.494 1.692.224 2.146-.151.257-.213.453-.625.109-.5-.344.125-2.703.391-3.047-2.062 1.088 1.231 2.402 1.122 3.019.708.403-.271.503-.803.11-.621-1.422.656-2.051-.606-2.975-1.856-1.113-1.507-2.936-.996-3.686-1.324-.276-.122-2.203 1.874-2.203 1.874z"/><path fill="#553788" d="M10.087 6.851c.894.895.894 2.345 0 3.24-.895.895-2.345.895-3.24 0s-.895-2.345 0-3.24c.895-.894 2.346-.894 3.24 0z"/><path fill="#553788" d="M7.227 10.218c.895.894.895 2.345 0 3.24s-2.345.895-3.239 0c-.894-.895-.894-2.345 0-3.24s2.345-.895 3.239 0z"/><path fill="#553788" d="M5.051 14.064c.894.895.894 2.345 0 3.24-.895.894-2.345.894-3.24 0-.894-.895-.894-2.345 0-3.24.895-.894 2.345-.894 3.24 0z"/><path fill="#553788" d="M4.039 18.317c.894.895.894 2.344 0 3.24-.895.895-2.346.895-3.241 0-.895-.896-.895-2.345 0-3.24s2.346-.895 3.241 0z"/><path fill="#553788" d="M4.494 22.67c.895.895.895 2.346 0 3.239-.894.894-2.345.894-3.239 0-.895-.894-.895-2.344 0-3.239.894-.895 2.345-.895 3.239 0z"/><path fill="#553788" d="M6.848 26.289c.895.894.895 2.346 0 3.24-.895.894-2.344.894-3.24 0-.894-.895-.894-2.346 0-3.24.895-.894 2.345-.894 3.24 0z"/><path fill="#553788" d="M10.923 27.681c.894.896.894 2.346 0 3.24-.895.894-2.345.894-3.24 0-.894-.895-.894-2.345 0-3.24.895-.894 2.345-.894 3.24 0z"/><path fill="#553788" d="M15.327 28.288c.895.896.895 2.346 0 3.241-.895.893-2.345.893-3.24 0-.894-.896-.894-2.346 0-3.241.894-.893 2.345-.893 3.24 0z"/><path fill="#553788" d="M19.604 27.807c.896.896.896 2.346 0 3.241-.894.894-2.345.894-3.239 0-.895-.896-.895-2.346 0-3.241.893-.893 2.344-.893 3.239 0z"/><path fill="#553788" d="M23.806 26.34c.894.895.894 2.346 0 3.239-.895.895-2.346.895-3.24 0-.895-.894-.895-2.345 0-3.239.894-.896 2.345-.896 3.24 0zM10.214 7.231c.895.895 2.345.895 3.24 0 .894-.895.894-2.346 0-3.24-.894-.894-2.345-.894-3.24 0-.895.895-.895 2.346 0 3.24z"/><path fill="#553788" d="M14.061 5.055c.896.894 2.346.894 3.24 0 .894-.895.894-2.345 0-3.24-.895-.894-2.345-.894-3.24 0-.895.895-.895 2.345 0 3.24z"/><path fill="#553788" d="M18.313 4.042c.895.894 2.345.894 3.24 0 .895-.895.895-2.345 0-3.24s-2.345-.895-3.24 0c-.894.895-.894 2.345 0 3.24z"/><path fill="#553788" d="M22.666 4.498c.896.895 2.346.895 3.24 0 .894-.894.894-2.345 0-3.239-.895-.895-2.345-.895-3.24 0-.895.894-.895 2.345 0 3.239z"/><path fill="#553788" d="M26.286 6.851c.894.895 2.344.895 3.238 0 .896-.895.896-2.344 0-3.239-.895-.894-2.345-.894-3.238 0-.895.895-.895 2.345 0 3.239z"/><path fill="#553788" d="M27.677 10.926c.896.894 2.346.894 3.241 0 .892-.895.892-2.344 0-3.24-.896-.894-2.346-.894-3.241 0-.894.896-.894 2.346 0 3.24z"/><path fill="#553788" d="M28.285 15.33c.895.894 2.345.894 3.24 0 .893-.895.893-2.345 0-3.239-.896-.895-2.346-.895-3.24 0-.894.894-.894 2.345 0 3.239z"/><path fill="#553788" d="M27.804 19.607c.895.895 2.345.895 3.24 0 .894-.894.894-2.345 0-3.239-.896-.895-2.346-.895-3.24 0-.894.894-.894 2.345 0 3.239z"/><path fill="#553788" d="M26.336 23.81c.896.894 2.346.894 3.239 0 .895-.895.895-2.347 0-3.241-.894-.894-2.344-.894-3.239 0-.895.895-.895 2.346 0 3.241z"/><path fill="#F4900C" d="M28.153 24.583c-.993-.993-2.605-.993-3.599 0-.995.993-.995 2.605 0 3.599l2.398 1.2 2.4-2.4-1.199-2.399z"/></symbol><symbol id="e-1f4da" viewBox="0 0 36 36"><path fill="#553788" d="M15 31c0 2.209-.791 4-3 4H5c-4 0-4-14 0-14h7c2.209 0 3 1.791 3 4v6z"/><path fill="#9266CC" d="M34 33h-1V23h1c.553 0 1-.447 1-1s-.447-1-1-1H10c-4 0-4 14 0 14h24c.553 0 1-.447 1-1s-.447-1-1-1z"/><path fill="#CCD6DD" d="M34.172 33H11c-2 0-2-10 0-10h23.172c1.104 0 1.104 10 0 10z"/><path fill="#99AAB5" d="M11.5 25h23.35c-.135-1.175-.36-2-.678-2H11c-1.651 0-1.938 6.808-.863 9.188C9.745 29.229 10.199 25 11.5 25z"/><path fill="#269" d="M12 8c0 2.209-1.791 4-4 4H4C0 12 0 1 4 1h4c2.209 0 4 1.791 4 4v3z"/><path fill="#55ACEE" d="M31 10h-1V3h1c.553 0 1-.447 1-1s-.447-1-1-1H7C3 1 3 12 7 12h24c.553 0 1-.447 1-1s-.447-1-1-1z"/><path fill="#CCD6DD" d="M31.172 10H8c-2 0-2-7 0-7h23.172c1.104 0 1.104 7 0 7z"/><path fill="#99AAB5" d="M8 5h23.925c-.114-1.125-.364-2-.753-2H8C6.807 3 6.331 5.489 6.562 7.5 6.718 6.142 7.193 5 8 5z"/><path fill="#F4900C" d="M20 17c0 2.209-1.791 4-4 4H6c-4 0-4-9 0-9h10c2.209 0 4 1.791 4 4v1z"/><path fill="#FFAC33" d="M35 19h-1v-5h1c.553 0 1-.447 1-1s-.447-1-1-1H15c-4 0-4 9 0 9h20c.553 0 1-.447 1-1s-.447-1-1-1z"/><path fill="#CCD6DD" d="M35.172 19H16c-2 0-2-5 0-5h19.172c1.104 0 1.104 5 0 5z"/><path fill="#99AAB5" d="M16 16h19.984c-.065-1.062-.334-2-.812-2H16c-1.274 0-1.733 2.027-1.383 3.5.198-.839.657-1.5 1.383-1.5z"/></symbol><symbol id="e-1f4d6" viewBox="0 0 36 36"><path fill="#269" d="M32 7H4c-2.209 0-4 1.791-4 4v15c0 2.209 1.791 4 4 4h11.416c.52.596 1.477 1 2.584 1s2.065-.404 2.584-1H32c2.209 0 4-1.791 4-4V11c0-2.209-1.791-4-4-4z"/><path fill="#292F33" d="M20 27c0 1.104-.896 2-2 2s-2-.896-2-2V9c0-1.104.896-2 2-2s2 .896 2 2v18z"/><path fill="#99AAB5" d="M18 26c0 1.104-.896 2-2 2H4c-1.104 0-2-.896-2-2V8c0-1.104.896-2 2-2h12c1.104 0 2 .896 2 2v18z"/><path fill="#E1E8ED" d="M18 26c-.999-1.998-3.657-2-4-2-2 0-5 2-8 2-1 0-2-.896-2-2V8c0-1.104 1-2 2-2 3.255 0 6-2 8-2 3 0 4 1.896 4 3v19z"/><path fill="#99AAB5" d="M34 26c0 1.104-.896 2-2 2H20c-1.104 0-2-.896-2-2V8c0-1.104.896-2 2-2h12c1.104 0 2 .896 2 2v18z"/><path fill="#CCD6DD" d="M18 26c.999-1.998 3.657-2 4-2 2 0 5 2 8 2 1 0 2-.896 2-2V8c0-1.104-1-2-2-2-3.256 0-6-2-8-2-3 0-4 1.896-4 3v19z"/></symbol><symbol id="e-1f9d5" viewBox="0 0 36 36"><path fill="#9266CC" d="M31 36v-3.5c0-3.314-3.685-5.5-7-5.5H12c-3.313 0-7 2.186-7 5.5V36h26z"/><path fill="#744EAA" d="M27.235 16.761c0-8.494-5.309-11.026-9.229-11.026s-9.8 2.559-9.8 11.026c0 3.489 1.255 6.182.644 8.238C7.65 29.037 11.778 32.506 15 34c4.94 2.29 10-3 10-3 3.975 0 2.235-4.248 2.235-14.239z"/><path fill="#9266CC" d="M27.807 16.761C27.807 8.267 21.926 5 18.006 5s-9.8 3.294-9.8 11.761c0 8.494 7.187 11.761 11.107 11.761C22.252 28.521 23.065 30 25 30c5.281 0 2.807-4.419 2.807-13.239z"/><path fill="#FFDC5D" d="M16.904 11.166c-2.167.265-6.558 3.877-6.719 5.799.2 5.341 3.62 9.596 7.821 9.596 4.178 0 7.583-4.208 7.818-9.507-.23-2.372-6.919-6.133-8.92-5.888z"/><path fill="#DF1F32" d="M17.944 23.543c-1.605 0-2.446-.794-2.536-.885-.268-.267-.268-.7 0-.967.266-.265.692-.267.96-.007.035.032.553.491 1.576.491 1.039 0 1.557-.473 1.577-.492.273-.256.703-.248.963.02.26.269.26.691-.004.955-.089.091-.929.885-2.536.885"/><path fill="#662113" d="M14.608 17.886c-.465 0-.846-.381-.846-.846v-.845c0-.465.381-.846.846-.846s.847.381.847.846v.845c0 .465-.382.846-.847.846m6.765 0c-.465 0-.846-.381-.846-.846v-.845c0-.465.381-.846.846-.846.465 0 .846.381.846.846v.845c0 .465-.381.846-.846.846"/><path fill="#C1694F" d="M18.837 20.5h-1.691c-.233 0-.423-.19-.423-.423v-.153c0-.233.189-.424.423-.424h1.691c.232 0 .423.19.423.424v.153c0 .233-.191.423-.423.423"/><path fill="#553788" d="M10 17s3-5 8-5 8 5 8 5-1-8-8-8-8 8-8 8z"/></symbol><symbol id="e-1f501" viewBox="0 0 36 36"><path fill="#3B88C3" d="M36 32c0 2.209-1.791 4-4 4H4c-2.209 0-4-1.791-4-4V4c0-2.209 1.791-4 4-4h28c2.209 0 4 1.791 4 4v28z"/><path fill="#FFF" d="M30.2 10L23 4v4h-8C9.477 8 5 12.477 5 18c0 1.414.297 2.758.827 3.978l3.3-2.75C9.044 18.831 9 18.421 9 18c0-3.314 2.686-6 6-6h8v4l7.2-6zm-.026 4.023l-3.301 2.75c.083.396.127.806.127 1.227 0 3.313-2.687 6-6 6h-8v-4l-7.2 6 7.2 6v-4h8c5.522 0 10-4.478 10-10 0-1.414-.297-2.758-.826-3.977z"/></symbol><symbol id="e-1f393" viewBox="0 0 36 36"><path fill="#31373D" d="M24 14H12s-5 6-5 10 11 11 11 11 11-7 11-11-5-10-5-10z"/><path fill="#292F33" d="M19.64 1.28c-.901-.704-2.377-.704-3.278 0L1.639 12.776c-.901.704-.901 1.856 0 2.56l14.722 11.495c.902.704 2.377.704 3.278 0l14.722-11.495c.902-.704.902-1.856 0-2.56L19.64 1.28z"/><path fill="#394146" d="M19.64 1.28c-.901-.704-2.377-.704-3.278 0L1.639 12.776c-.901.704-.901 1.856 0 2.56l14.722 11.495c.901.704 2.377.704 3.278 0l14.723-11.495c.901-.704.901-1.856 0-2.56L19.64 1.28z"/><path fill="#FCAB40" d="M8 25s-2 2-2 3v6s0 2 2 2 2-2 2-2v-6c0-1-2-3-2-3z"/><circle fill="#FDD888" cx="8" cy="26" r="3"/><path fill="#FCAB40" d="M8.001 27c-.552 0-1-.447-1-1v-3.958c-.042-.634.187-2.036 1.317-2.884l9.022-7.91c.416-.365 1.048-.323 1.411.093.364.415.322 1.047-.093 1.411l-9.08 7.958C8.974 21.166 9 21.982 9 21.99L9.002 26c0 .553-.448 1-1.001 1z"/><circle fill="#31373D" cx="18" cy="13" r="3"/></symbol><symbol id="e-1f54b" viewBox="0 0 36 36"><path d="M18 0L0 5v29l18 2 18-2V5z"/><path fill="#292F33" d="M18 36l18-2V5L18 0z"/><path fill="#FFD983" d="M22.454 14.507v3.407l4.229.612V15.22zm7 1.181v3.239l3.299.478v-3.161zM18 13.756v3.513l1.683.244V14.04zm18 3.036l-.539-.091v3.096l.539.078z"/><path fill="#FFAC33" d="M0 16.792v3.083l.539-.078v-3.096zm16.317-2.752v3.473L18 17.269v-3.513zm-13.07 2.204v3.161l3.299-.478v-3.239zm6.07-1.024v3.306l4.229-.612v-3.407z"/><path fill="#FFD983" d="M21.389 15.131v-.042c0-.421-.143-.763-.32-.763-.177 0-.32.342-.32.763v.042c-.208.217-.355.621-.355 1.103 0 .513.162.949.393 1.152.064.195.163.33.282.33s.218-.135.282-.33c.231-.203.393-.639.393-1.152-.001-.482-.147-.886-.355-1.103zm6.999 1.069v-.042c0-.421-.143-.763-.32-.763-.177 0-.32.342-.32.763v.042c-.208.217-.355.621-.355 1.103 0 .513.162.949.393 1.152.064.195.163.33.282.33s.218-.135.282-.33c.231-.203.393-.639.393-1.152 0-.481-.147-.885-.355-1.103zm6.017 1.03v-.039c0-.393-.134-.712-.299-.712-.165 0-.299.319-.299.712v.039c-.194.203-.331.58-.331 1.03 0 .479.151.886.367 1.076.059.182.152.308.263.308s.203-.126.263-.308c.215-.189.367-.597.367-1.076 0-.45-.136-.827-.331-1.03z"/><path fill="#FFAC33" d="M14.611 15.131v-.042c0-.421.143-.763.32-.763s.32.342.32.763v.042c.208.217.355.621.355 1.103 0 .513-.162.949-.393 1.152-.064.195-.163.33-.282.33s-.218-.135-.282-.33c-.231-.203-.393-.639-.393-1.152.001-.482.147-.886.355-1.103zM7.612 16.2v-.042c0-.421.143-.763.32-.763s.32.342.32.763v.042c.208.217.355.621.355 1.103 0 .513-.162.949-.393 1.152-.064.195-.163.33-.282.33s-.218-.135-.282-.33c-.231-.203-.393-.639-.393-1.152 0-.481.147-.885.355-1.103zm-6.017 1.03v-.039c0-.393.134-.712.299-.712s.299.319.299.712v.039c.194.203.331.58.331 1.03 0 .479-.151.886-.367 1.076-.059.182-.152.308-.263.308s-.204-.127-.264-.308c-.215-.189-.367-.597-.367-1.076.001-.45.137-.827.332-1.03zM0 11.146v3.5l18-3.268V7.614z"/><path fill="#FFD983" d="M18 7.614v3.764l18 3.268v-3.5z"/></symbol><symbol id="e-1f331" viewBox="0 0 36 36"><path fill="#77B255" d="M22.911 14.398c-1.082.719-2.047 1.559-2.88 2.422-.127-4.245-1.147-9.735-6.772-12.423C12.146-1.658-.833 1.418.328 2.006c2.314 1.17 3.545 4.148 5.034 5.715 2.653 2.792 5.603 2.964 7.071.778 3.468 2.254 3.696 6.529 3.59 11.099-.012.505-.023.975-.023 1.402v14c0 1.104 4 1.104 4 0V23.51c.542-.954 2.122-3.505 4.43-5.294 1.586 1.393 4.142.948 6.463-1.495 1.489-1.567 2.293-4.544 4.607-5.715 1.221-.618-12.801-3.994-12.589 3.392z"/></symbol><symbol id="e-1f399" viewBox="0 0 36 36"><path fill="#292F33" d="M6 15h24v2H6zm15 15c0 2.208-.792 4-3 4-2.209 0-3-1.792-3-4s.791-2 3-2c2.208 0 3-.208 3 2z"/><path fill="#66757F" d="M18 31c-6.627 0-10 1.343-10 3v2h20v-2c0-1.657-3.373-3-10-3z"/><path fill="#99AAB5" d="M18 0c-4.971 0-9 4.029-9 9v7h18V9c0-4.971-4.029-9-9-9z"/><g fill="#292F33"><circle cx="15.5" cy="2.5" r="1.5"/><circle cx="20.5" cy="2.5" r="1.5"/><circle cx="17.5" cy="6.5" r="1.5"/><circle cx="22.5" cy="6.5" r="1.5"/><circle cx="12.5" cy="6.5" r="1.5"/><circle cx="15.5" cy="10.5" r="1.5"/><circle cx="10.5" cy="10.5" r="1.5"/><circle cx="20.5" cy="10.5" r="1.5"/><circle cx="25.5" cy="10.5" r="1.5"/><circle cx="17.5" cy="14.5" r="1.5"/><circle cx="22.5" cy="14.5" r="1.5"/><circle cx="12.5" cy="14.5" r="1.5"/></g><path fill="#66757F" d="M9 15.062V17c0 4.971 4.029 9 9 9s9-4.029 9-9v-1.938H9z"/><path fill="#66757F" d="M30 14c-.553 0-1 .448-1 1v2c0 6.074-4.925 11-11 11S7 23.074 7 17v-2c0-.552-.448-1-1-1s-1 .448-1 1v2c0 7.18 5.82 13 13 13s13-5.82 13-13v-2c0-.552-.447-1-1-1z"/></symbol><symbol id="e-1f468-200d-1f466" viewBox="0 0 36 36"><path fill="#3B88C3" d="M36 32c0 2.209-1.791 4-4 4H4c-2.209 0-4-1.791-4-4V4c0-2.209 1.791-4 4-4h28c2.209 0 4 1.791 4 4v28z"/><path fill="#FFF" d="M20.285 14.196c-.196 0-.264-.255-.098-.353 1.425-.863 2.392-2.5 2.392-4.245 0-1.22-.483-2.389-1.341-3.251a4.57 4.57 0 0 0-6.476 0 4.608 4.608 0 0 0-1.34 3.251c0 1.745.966 3.382 2.391 4.245.166.098.098.353-.098.353-2.606 0-4.715 2.118-4.715 4.735v9.343c0 .402.322.726.723.726h12.554c.4 0 .723-.323.723-.726v-9.343c0-2.608-2.109-4.735-4.715-4.735Z"/><path fill="#3B88C3" d="M18.414 23.78a4.761 4.761 0 0 1 4.76-4.76c.224 0 .472.01.725.064a4.757 4.757 0 0 1 3.644 2.796v.001c.727 1.684.402 3.64-.707 5.047a5.393 5.393 0 0 1 1.733 2.982 1.944 1.944 0 0 1-1.905 2.34h-6.97c-.581 0-1.133-.25-1.503-.711a1.932 1.932 0 0 1-.402-1.627v-.001a5.467 5.467 0 0 1 1.734-2.99 5.065 5.065 0 0 1-1.109-3.141Z"/><path fill="#FFF" d="M27.334 30.15a4.22 4.22 0 0 0-2.34-2.96c-.1-.05-.11-.19-.02-.25 1.4-.92 2.16-2.84 1.41-4.58a3.527 3.527 0 0 0-4.187-1.965 3.508 3.508 0 0 0-2.543 3.375c0 1.28.68 2.48 1.7 3.16.09.06.09.21-.02.25a4.181 4.181 0 0 0-2.34 2.96c-.09.44.24.85.68.85h6.97c.46.01.78-.4.69-.84Z"/></symbol><symbol id="e-1f3a7" viewBox="0 0 36 36"><path fill="#66757F" d="M18 0C9.716 0 3 6.716 3 15v9h3v-9C6 8 11.269 2.812 18 2.812 24.73 2.812 30 8 30 15v10l3-1v-9c0-8.284-6.716-15-15-15z"/><path fill="#31373D" d="M6 27c0 1.104-.896 2-2 2H2c-1.104 0-2-.896-2-2v-9c0-1.104.896-2 2-2h2c1.104 0 2 .896 2 2v9zm30 0c0 1.104-.896 2-2 2h-2c-1.104 0-2-.896-2-2v-9c0-1.104.896-2 2-2h2c1.104 0 2 .896 2 2v9z"/><path fill="#55ACEE" d="M19.182 10.016l-6.364 1.313c-.45.093-.818.544-.818 1.004v16.185c-.638-.227-1.341-.36-2.087-.36-2.785 0-5.042 1.755-5.042 3.922 0 2.165 2.258 3.827 5.042 3.827C12.649 35.905 14.922 34 15 32V16.39l4.204-.872c.449-.093.796-.545.796-1.004v-3.832c0-.458-.368-.759-.818-.666zm8 3.151l-4.297.865c-.45.093-.885.544-.885 1.003V26.44c0-.152-.878-.24-1.4-.24-2.024 0-3.633 1.276-3.633 2.852 0 1.574 1.658 2.851 3.683 2.851s3.677-1.277 3.677-2.851l-.014-11.286 2.869-.598c.45-.093.818-.544.818-1.003v-2.33c0-.459-.368-.76-.818-.668z"/></symbol><symbol id="e-1f4e3" viewBox="0 0 36 36"><path fill="#3B88C3" d="M14 19c-3.314 0-6 2.687-6 6s2.686 6 6 6 6-2.687 6-6-2.687-6-6-6zm0 10c-2.209 0-4-1.791-4-4s1.791-4 4-4 4 1.791 4 4-1.791 4-4 4z"/><path fill="#55ACEE" d="M1.783 14.023v.02C.782 14.263 0 15.939 0 18s.782 3.737 1.783 3.956v.021l28.701 7.972V6.064L1.783 14.023z"/><ellipse fill="#269" cx="31" cy="18" rx="5" ry="12"/></symbol><symbol id="e-2139" viewBox="0 0 36 36"><path fill="#3B88C3" d="M0 4c0-2.209 1.791-4 4-4h28c2.209 0 4 1.791 4 4v28c0 2.209-1.791 4-4 4H4c-2.209 0-4-1.791-4-4V4z"/><path fill="#FFF" d="M20.512 8.071c0 1.395-1.115 2.573-2.511 2.573-1.333 0-2.511-1.209-2.511-2.573 0-1.271 1.178-2.45 2.511-2.45 1.333.001 2.511 1.148 2.511 2.45zm-4.744 6.728c0-1.488.931-2.481 2.232-2.481 1.302 0 2.232.992 2.232 2.481v11.906c0 1.488-.93 2.48-2.232 2.48s-2.232-.992-2.232-2.48V14.799z"/></symbol><symbol id="e-1f4dd" viewBox="0 0 36 36"><path fill="#CCD6DD" d="M31 32c0 2.209-1.791 4-4 4H5c-2.209 0-4-1.791-4-4V4c0-2.209 1.791-4 4-4h22c2.209 0 4 1.791 4 4v28z"/><path fill="#99AAB5" d="M27 24c0 .553-.447 1-1 1H6c-.552 0-1-.447-1-1 0-.553.448-1 1-1h20c.553 0 1 .447 1 1zm-16 4c0 .553-.448 1-1 1H6c-.552 0-1-.447-1-1 0-.553.448-1 1-1h4c.552 0 1 .447 1 1zM27 8c0 .552-.447 1-1 1H6c-.552 0-1-.448-1-1s.448-1 1-1h20c.553 0 1 .448 1 1zm0 4c0 .553-.447 1-1 1H6c-.552 0-1-.447-1-1 0-.553.448-1 1-1h20c.553 0 1 .447 1 1zm0 4c0 .553-.447 1-1 1H6c-.552 0-1-.447-1-1 0-.553.448-1 1-1h20c.553 0 1 .447 1 1zm0 4c0 .553-.447 1-1 1H6c-.552 0-1-.447-1-1 0-.553.448-1 1-1h20c.553 0 1 .447 1 1z"/><path fill="#66757F" d="M31 6.272c-.827-.535-1.837-.579-2.521-.023l-.792.646-1.484 1.211-.1.08-2.376 1.938-11.878 9.686c-.437.357-.793 1.219-1.173 2.074-.378.85-.969 2.852-1.443 4.391-.148.25-1.065 1.846-.551 2.453.52.615 2.326.01 2.568-.076 1.626-.174 3.731-.373 4.648-.58.924-.211 1.854-.395 2.291-.752.008-.006.01-.018.017-.023l11.858-9.666.792-.646.144-.118V6.272z"/><path fill="#D99E82" d="M18.145 22.526s-1.274-1.881-2.117-2.553c-.672-.843-2.549-2.116-2.549-2.116-.448-.446-1.191-.48-1.629-.043-.437.438-.793 1.366-1.173 2.291-.472 1.146-1.276 4.154-1.768 5.752-.083.272.517-.45.503-.21-.01.187.027.394.074.581l-.146.159.208.067c.025.082.05.154.068.21l.159-.146c.187.047.394.084.58.074.24-.014-.483.587-.21.503 1.598-.493 4.607-1.296 5.752-1.768.924-.381 1.854-.736 2.291-1.174.439-.435.406-1.178-.043-1.627z"/><path fill="#EA596E" d="M25.312 4.351c-.876.875-.876 2.293 0 3.168l3.167 3.168c.876.874 2.294.874 3.168 0l3.169-3.168c.874-.875.874-2.293 0-3.168l-3.169-3.168c-.874-.875-2.292-.875-3.168 0l-3.167 3.168z"/><path fill="#FFCC4D" d="M11.849 17.815l3.17 3.17 3.165 3.166 11.881-11.879-6.337-6.336-11.879 11.879z"/><path fill="#292F33" d="M11.298 26.742s-2.06 1.133-2.616.576c-.557-.558.581-2.611.581-2.611s1.951.036 2.035 2.035z"/><path fill="#CCD6DD" d="M23.728 5.935l3.96-3.96 6.336 6.337-3.96 3.96z"/><path fill="#99AAB5" d="M26.103 3.558l.792-.792 6.336 6.335-.792.792zM24.52 5.142l.791-.791 6.336 6.335-.792.792z"/></symbol><symbol id="e-1f30d" viewBox="0 0 36 36"><circle fill="#88C9F9" cx="18" cy="18" r="18"/><path fill="#5C913B" d="M25.716 1.756c-1.022.568-1.872 1.528-3.028 1.181-1.875-.562-4.375-1.812-6-.25s-2 3 0 2.938 3.375-2.438 4.375-1.438.749 1.813-1.625 2.125S14.5 7 13.125 7s-1.688.812-.75 1.688-.563.937-2.125 1.812.375 1.25 1.688 2 2.312-.188 2.875-1.438 2.981-2.75 3.99-2.562c1.01.188 1.01.688.822 1.562s.75.625.812-.375 1.188-1.75 2.062-1.812 1.625 1.188.625 1.812-2 1.125-.75 1.438 2.125 1.938.688 2.625-3.937 1.125-5.062.562-3.688-1.375-4.375-.938-1.062.89-1.875 1.195c-.812.305-4.125 1.805-4.188 3.743S7.438 22.438 8.75 22.5s4.5-.812 5.5-1.625 2.375-.625 2.812.312.125 1.5-.312 3 .286 2.25.987 3.562c.701 1.312 1.263 2.062 1.263 3s1 1.875 2.5.312 2.875-4.625 3.5-5.75 1.125-3.625 1.875-4.125 1.938-1.688 1.062-1.5-2.625-.062-3.062-1.312-2.312-3.625-1.438-3.875 1.875 1.39 2.25 2.164c.375.774.875 1.711 1.625 1.961s2.375-1.673 2.875-1.961c.5-.289.125-1.476-.875-1.351s-2.312 0-2.312-.624 1.25-1.438 2.25-1.25 1.75.5 2.375 1.25 1.875 2.125 2.375 3 .875 1 1.125-.562c.166-1.038.387-1.609.59-2.222-1.013-5.829-4.82-10.683-9.999-13.148z"/></symbol></svg>